<mxfile host="app.diagrams.net" modified="2021-01-20T10:52:36.337Z" agent="5.0 (Macintosh; Intel Mac OS X 10_13_6) AppleWebKit/537.36 (KHTML, like Gecko) Chrome/87.0.4280.141 Safari/537.36" etag="VKqCoN0aB5VxcD4UWMrZ" version="14.2.2" type="github">
  <diagram id="KbeWhUiQvpMcdsBGoq2v" name="Page-1">
    <mxGraphModel dx="815" dy="521" grid="1" gridSize="10" guides="1" tooltips="1" connect="1" arrows="1" fold="1" page="1" pageScale="1" pageWidth="827" pageHeight="1169" math="0" shadow="0">
      <root>
        <mxCell id="0" />
        <mxCell id="1" parent="0" />
        <mxCell id="7hoKIL6LDVViFBstgoZA-3" value="" style="edgeStyle=orthogonalEdgeStyle;rounded=0;orthogonalLoop=1;jettySize=auto;html=1;" edge="1" parent="1" source="7hoKIL6LDVViFBstgoZA-1" target="7hoKIL6LDVViFBstgoZA-2">
          <mxGeometry relative="1" as="geometry" />
        </mxCell>
        <mxCell id="7hoKIL6LDVViFBstgoZA-1" value="新建工具" style="rounded=0;whiteSpace=wrap;html=1;" vertex="1" parent="1">
          <mxGeometry x="110" y="50" width="120" height="30" as="geometry" />
        </mxCell>
        <mxCell id="7hoKIL6LDVViFBstgoZA-5" value="" style="edgeStyle=orthogonalEdgeStyle;rounded=0;orthogonalLoop=1;jettySize=auto;html=1;" edge="1" parent="1" source="7hoKIL6LDVViFBstgoZA-2" target="7hoKIL6LDVViFBstgoZA-4">
          <mxGeometry relative="1" as="geometry" />
        </mxCell>
        <mxCell id="7hoKIL6LDVViFBstgoZA-2" value="配置数据集" style="whiteSpace=wrap;html=1;rounded=0;" vertex="1" parent="1">
          <mxGeometry x="110" y="130" width="120" height="30" as="geometry" />
        </mxCell>
        <mxCell id="7hoKIL6LDVViFBstgoZA-7" value="" style="edgeStyle=orthogonalEdgeStyle;rounded=0;orthogonalLoop=1;jettySize=auto;html=1;" edge="1" parent="1" source="7hoKIL6LDVViFBstgoZA-4" target="7hoKIL6LDVViFBstgoZA-6">
          <mxGeometry relative="1" as="geometry" />
        </mxCell>
        <mxCell id="7hoKIL6LDVViFBstgoZA-4" value="关联转化器" style="whiteSpace=wrap;html=1;rounded=0;" vertex="1" parent="1">
          <mxGeometry x="110" y="210" width="120" height="35" as="geometry" />
        </mxCell>
        <mxCell id="7hoKIL6LDVViFBstgoZA-9" value="" style="edgeStyle=orthogonalEdgeStyle;rounded=0;orthogonalLoop=1;jettySize=auto;html=1;" edge="1" parent="1" source="7hoKIL6LDVViFBstgoZA-6" target="7hoKIL6LDVViFBstgoZA-8">
          <mxGeometry relative="1" as="geometry" />
        </mxCell>
        <mxCell id="7hoKIL6LDVViFBstgoZA-6" value="新建完成" style="whiteSpace=wrap;html=1;rounded=0;" vertex="1" parent="1">
          <mxGeometry x="110" y="290" width="120" height="27.5" as="geometry" />
        </mxCell>
        <mxCell id="7hoKIL6LDVViFBstgoZA-8" value="执行工具" style="whiteSpace=wrap;html=1;rounded=0;" vertex="1" parent="1">
          <mxGeometry x="110" y="360" width="120" height="40" as="geometry" />
        </mxCell>
      </root>
    </mxGraphModel>
  </diagram>
</mxfile>
